. 
  
http://www.torrentday.com/        :     The Hottest Private Tracker On The Net!!!
 
http://www.torrentday.com          :     Once & For all ;)


               www . TorrentDay . Com 

(((((((((((((= Enjoy No RAR releases =))))))))))))))))))))


...................................NFO:....................................

.[pre]  
    *********** ****    ****      ***      ******** *********** ****    *** **********
           *+*     +*+*+* *+*+*+   *+* *+*   *+*    *+*    *+*     *+*+*   *+* *+*        
           +*+     +*+ +*+*+ +*+  +*+   +*+  +*+           +*+     *+*+*+  +*+ +*+        
           +$+     +$+  +*+  +$+ +$++*++$++* *$*           +$+     +$+ +*+ +$+ +$++*++$  
           +$+     +$+       +$+ +$+     +$+ +$+   +$+$    +$+     +$+  +$+$+$ +$+        
           $+$     $+$       $+$ $+$     $+$ $+$    $+$    $+$     $+$   $+$+$ $+$        
       $$$$$$$$$$$ $$$       $$$ $$$     $$$  $$$$$$$$ $$$$$$$$$$$ $$$    $$$$ $$$$$$$$$$     
                                                



                           Another Fine Release Brought to you from - IMAGiNE                   
                                                 

********************************************************************************************************************                                
                              Little Fockers 2010 DVDSCR XViD - IMAGiNE
********************************************************************************************************************

Ripper ...........:IMAGiNE                                         IMDB Rating.......:5.3/10                             
Video Codec.......:XVID                                            Release Date......:11/02/11
Audio Codec.......:AC-3                                            Theatre Date......:22/12/10
Audio Bitrate.....:224                                             Runtime...........:1h 33mn
Subtitles.........:NIL                                             Language..........:ENGLISH
Resolution........:720 x 352                                       IMDb URL..........:http://www.imdb.com/title/tt0970866/

[color=yellow]DETAILS:[/color]

Video
ID                               : 0
Format                           : MPEG-4 Visual
Format profile                   : Advanced Simple@L5
Format settings, BVOP            : Yes
Format settings, QPel            : No
Format settings, GMC             : No warppoints
Format settings, Matrix          : Default (MPEG)
Muxing mode                      : Packed bitstream
Codec ID                         : XVID
Codec ID/Hint                    : XviD
Duration                         : 1h 33mn
Bit rate                         : 1 874 Kbps
Width                            : 720 pixels
Height                           : 352 pixels
Display aspect ratio             : 2.045
Frame rate                       : 23.976 fps
Color space                      : YUV
Chroma subsampling               : 4:2:0
Bit depth                        : 8 bits
Scan type                        : Progressive
Compression mode                 : Lossy
Bits/(Pixel*Frame)               : 0.308
Stream size                      : 1.23 GiB (89%)
Writing library                  : XviD 61

Audio
ID                               : 1
Format                           : AC-3
Format/Info                      : Audio Coding 3
Mode extension                   : CM (complete main)
Codec ID                         : 2000
Duration                         : 1h 33mn
Bit rate mode                    : Constant
Bit rate                         : 224 Kbps
Channel(s)                       : 2 channels
Channel positions                : Front: L R
Sampling rate                    : 48.0 KHz
Bit depth                        : 16 bits
Compression mode                 : Lossy
Stream size                      : 150 MiB (11%)
Alignment                        : Aligned on interleaves
Interleave, duration             : 42 ms (1.00 video frame)
Interleave, preload duration     : 512 ms


[color=yellow]SOURCES:[/color]

VIDEO:vobs Rx ....... Thanks
AUDIO:vobs Rx ....... Thanks

[color=yellow]NOTES:[/color]

IMAGiNE bringing you another release..........Little Fockers 2010

Ok here's another release of Little Fockers by us :lol: we weren't going to do it but got a few pms so ....
Anyway we used the vobs from Rx thanks and clean it up,altered the colours,white balance,contrast and brightness.
Audio we just mux it back to our encode own  ;-)

Enjoy folks  


[color=yellow]SCREENS:[/color]






[color=yellow]GREETS:[/color]

FLAWL3SS,ViSiON,FUSiON,Rx,SecretMyth,BirdFlu,ELEKTRI4KA,Serenity
And to all the other p2p grps past and present 

[COLOR=RED]Looking for these,syncers,cammers,silver supplier.....Have anything to offer????......
Contact us imaginegroup@hushmail.com[/COLOR][/pre]